<?xml version="1.0" encoding="UTF-8"?>
<!DOCTYPE svg PUBLIC "-//W3C//DTD SVG 1.1//EN" "http://www.w3.org/Graphics/SVG/1.1/DTD/svg11.dtd">
<!-- Creator: CorelDRAW X7 -->
<svg xmlns="http://www.w3.org/2000/svg" xml:space="preserve" width="114.134mm" height="36.903mm" version="1.1" style="shape-rendering:geometricPrecision; text-rendering:geometricPrecision; image-rendering:optimizeQuality; fill-rule:evenodd; clip-rule:evenodd"
     viewBox="0 0 11413 3690"
     xmlns:xlink="http://www.w3.org/1999/xlink">
 <defs>
  <style type="text/css">
   <![CDATA[
    .fil0 {fill:#FFA800}
   ]]>
  </style>
 </defs>
    <g id="Слой_x0020_1">
  <metadata id="CorelCorpID_0Corel-Layer"/>
        <g id="ЛОГО_x0020_АПЛ_x0020_ГО_x0020__x0028_1_x0029_.cdr">
   <path class="fil0" d="M3756 1532l229 625 -462 0 233 -625zm-156 -549l-752 1941 393 0 151 -407 720 0 152 407 407 0 -743 -1941 -328 0z"/>
            <path class="fil0" d="M4754 983l0 1941 281 0 99 0 0 -99 0 -646 141 0c208,0 372,-56 495,-167 123,-111 184,-260 184,-445 0,-101 -22,-196 -68,-286 -45,-88 -108,-160 -189,-214 -43,-29 -101,-50 -171,-64 -71,-13 -167,-20 -290,-20l-162 0 -152 0 -168 0zm380 868l0 -527 97 0c111,0 194,22 248,65 55,43 83,109 83,196 0,86 -29,151 -85,197 -56,46 -138,69 -244,69l-99 0z"/>
            <polygon class="fil0" points="6158,983 6158,2924 7142,2924 7142,2583 6533,2583 6533,983 "/>
            <path class="fil0"
                  d="M1843 2033c-42,-373 -102,-547 -277,-786 -148,-209 -356,-329 -601,-438 -114,-54 -224,-119 -328,-184 -55,-31 -110,-66 -160,-102 -38,-30 -105,-97 -143,-117 13,42 47,100 59,142 13,53 31,106 49,153 31,112 51,218 72,340 41,234 36,507 118,702 72,179 201,350 334,469 72,66 133,123 211,184 27,15 236,162 236,162 -27,-4 -87,-40 -119,-49 -33,-14 -88,-39 -126,-43 -86,-24 -183,-47 -290,-43l-16 1c-160,6 -296,87 -423,140 -67,33 -198,77 -313,103 -46,10 -90,18 -126,21 10,9 69,35 126,59 43,19 84,36 102,44 72,46 133,86 204,132 121,86 291,181 494,173l85 -3c241,-9 437,-204 607,-211l75 -3c59,-2 151,31 195,51 -7,-27 -107,-124 -134,-145 -28,-25 -149,-112 -155,-122 21,5 109,49 142,64 54,19 103,39 157,53 44,15 109,33 162,42 32,9 55,14 86,18 33,10 29,37 51,57 -14,-369 140,-407 314,-590 129,-144 275,-369 264,-637l-1 -42c-4,-102 -54,-276 -79,-367 -31,-106 -37,-266 -42,-405 -26,33 -60,110 -86,154 -34,49 -65,88 -101,137 -56,72 -159,194 -225,255 -172,152 -270,375 -257,690l4 96c4,123 19,235 45,335 12,43 30,106 47,143 13,37 53,99 59,132 -64,-14 -201,-212 -230,-291 -66,-180 -43,-261 -66,-474zm-983 -759c41,84 98,184 144,267 47,89 88,195 129,289 93,190 207,346 345,479 73,72 139,129 211,196 45,46 193,152 222,189 -27,-5 -214,-136 -247,-156 -83,-66 -144,-118 -221,-190 -139,-123 -259,-300 -351,-473 -97,-178 -175,-378 -262,-568 -88,-189 -181,-372 -274,-557 22,16 280,461 304,524zm1285 1411l-26 -267c-23,-207 97,-549 167,-680 50,-93 93,-191 138,-290 20,-43 118,-277 133,-293 -4,32 -105,314 -125,357 -54,115 -103,224 -152,338 -119,262 -143,455 -129,835l-6 0zm-1146 -47c128,-10 300,15 392,44 81,24 256,92 310,132 -21,1 -222,-76 -271,-91 -81,-24 -205,-56 -312,-52l-118 5 -266 21 -76 2 -400 6 -1 -6 742 -61z"/>
            <path class="fil0" d="M7697 2184l-749 0c-15,0 -27,-4 -36,-15 -10,-9 -16,-20 -16,-33l0 -79 947 0 0 1236 -4 2c-178,122 -370,217 -574,287 -223,77 -459,107 -694,107 -258,0 -517,-36 -759,-129 -217,-83 -411,-204 -575,-369 -79,-80 -149,-168 -209,-263l-7 -12 105 0 0 -120 14 25c58,102 128,196 210,280 147,152 323,264 521,340 222,85 461,118 698,118 110,0 220,-6 328,-22 96,-15 192,-37 285,-67 89,-29 177,-63 262,-104 86,-42 171,-87 253,-137l0 -1045zm-49 -1671c-27,-9 -73,-50 -94,-68 -58,-49 -130,-90 -197,-125 -103,-54 -219,-93 -331,-123 -158,-44 -329,-57 -493,-57 -230,0 -458,34 -673,118 -195,75 -369,186 -514,337 -110,115 -198,247 -265,391l-2 5 -169 0 5 -11c77,-176 180,-337 314,-475 160,-166 352,-286 566,-370 220,-86 456,-125 692,-130l104 0c106,2 212,10 318,26 107,16 214,42 316,78 97,34 189,78 276,132 88,54 171,116 249,185l5 4 -38 59c-17,25 -40,31 -69,24z"/>
            <path class="fil0" d="M7343 1013c92,0 167,75 167,168 0,92 -75,167 -167,167 -93,0 -168,-75 -168,-167 0,-93 75,-168 168,-168zm0 366c109,0 198,-89 198,-198 0,-110 -89,-199 -198,-199 -110,0 -199,89 -199,199 0,109 89,198 199,198z"/>
            <path class="fil0" d="M7412 1100c-7,-7 -15,-11 -25,-15 -9,-4 -21,-5 -33,-5l-90 0 0 201 35 0 0 -70 44 0 50 70 42 0 -55 -76c7,-2 14,-5 20,-8 6,-4 11,-8 15,-13 4,-5 8,-11 10,-18 2,-6 4,-14 4,-22l0 -1c0,-9 -2,-17 -5,-24 -3,-7 -7,-14 -12,-19zm-30 20c7,6 10,14 10,25l0 1c0,10 -3,18 -11,25 -7,6 -17,9 -30,9l-52 0 0 -68 52 0c13,0 23,2 31,8z"/>
            <path class="fil0" d="M11413 1847c-10,2476 -3425,2440 -3356,0 -52,-2388 3353,-2536 3356,0zm-152 -1c48,-2200 -3055,-2310 -3070,3 -84,2252 3099,2267 3070,-3z"/>
  </g>
 </g>
</svg>
