<svg width="36" height="34" viewBox="0 0 36 34" fill="none" xmlns="http://www.w3.org/2000/svg">
    <path fill-rule="evenodd" clip-rule="evenodd"
          d="M3.27833 28.619L12.7255 27.8537C14.3588 27.7271 16.5503 28.0436 17.7253 28.4003C18.7593 28.6938 20.9742 29.5453 21.6793 30.0516C21.4031 30.0631 18.8416 29.0908 18.2247 28.9181C17.1907 28.619 15.6044 28.2162 14.2413 28.268L12.7432 28.3255L9.34734 28.5844L8.3897 28.6247L3.27833 28.6822V28.619ZM27.4075 28.4348H27.337L27.0021 25.1092C26.6966 22.52 28.23 18.2508 29.1231 16.6167C29.7576 15.4545 30.3216 14.2347 30.8856 13.0091C31.1382 12.4683 32.3838 9.5454 32.5835 9.33827C32.5306 9.74103 31.2381 13.2623 30.9855 13.8089C30.2922 15.2358 29.6636 16.5937 29.0408 18.0206C27.5309 21.283 27.2195 23.6995 27.4075 28.4348ZM7.08542 4.29802C7.36742 4.48789 10.6575 10.0402 10.9571 10.8285C11.48 11.8757 12.2085 13.1185 12.796 14.1656C13.3836 15.2761 13.9182 16.5937 14.4411 17.7732C15.622 20.1322 17.0673 22.0827 18.8357 23.7513C19.7581 24.6489 20.6041 25.3508 21.5206 26.1851C22.0905 26.7663 23.9882 28.0954 24.3466 28.5499C23.9999 28.4981 21.6205 26.8526 21.1975 26.5994C20.1458 25.7709 19.3703 25.1322 18.3774 24.2346C16.6149 22.6984 15.0932 20.489 13.9182 18.3313C12.6668 16.1046 11.6856 13.6075 10.5694 11.2427C9.4531 8.88373 8.26632 6.59375 7.08542 4.29802ZM18.0014 26.8526C17.6607 26.8008 16.891 26.3635 16.4798 26.2427C16.0626 26.0586 15.3694 25.7536 14.8876 25.7018C13.7889 25.4141 12.5493 25.1265 11.1863 25.1782L10.9806 25.184C8.94196 25.2645 7.20879 26.2657 5.59901 26.9274C4.3946 27.5027 1.56279 28.3485 0 28.4751C0.211505 28.665 2.36181 29.5165 2.91407 29.7639C3.82471 30.3336 4.59436 30.8341 5.505 31.4037C7.04429 32.4797 9.20634 33.665 11.7914 33.5671L12.8842 33.5269C15.9451 33.4118 18.4421 30.978 20.6217 30.8974L21.5735 30.8571C22.3196 30.8284 23.4947 31.2542 24.0528 31.5016C23.9706 31.1678 22.6957 29.9481 22.3431 29.6949C21.9906 29.3727 20.4455 28.2967 20.375 28.1644C20.6511 28.2219 21.7615 28.7801 22.1786 28.9642C22.8719 29.2058 23.4947 29.4475 24.1821 29.6259C24.7343 29.8042 25.5627 30.0401 26.2501 30.1494C26.6614 30.2645 26.9375 30.3221 27.3488 30.3738C27.76 30.4889 27.7071 30.8284 27.9892 31.0815C27.807 26.4843 29.7634 26.0068 31.996 23.7168C33.6293 21.9216 35.4917 19.1138 35.3625 15.7767L35.339 15.2416C35.2919 13.9758 34.6574 11.7951 34.3402 10.6731C33.9465 9.35553 33.8702 7.35324 33.7997 5.62137C33.4765 6.03564 33.0359 6.985 32.7128 7.53161C32.2604 8.14725 31.8726 8.63056 31.4202 9.25197C30.7035 10.1438 29.3992 11.6628 28.5473 12.4338C26.3735 14.3152 25.1162 17.1 25.2748 21.0356L25.3218 22.2381C25.3806 23.7686 25.5745 25.1667 25.8976 26.421C26.0562 26.9504 26.2912 27.7386 26.5145 28.1989C26.6672 28.6592 27.1725 29.4417 27.2606 29.8387C26.4322 29.6719 24.6991 27.1978 24.3172 26.2139C23.4829 23.9757 23.7826 22.9631 23.4712 20.3048C22.9483 15.6501 22.1786 13.4752 19.9461 10.489C18.0719 7.88834 15.4222 6.38662 12.2967 5.0345C10.8396 4.35556 9.44135 3.54429 8.11356 2.72726C7.4203 2.35327 6.72116 1.91023 6.08664 1.4672C5.59313 1.0817 4.74711 0.24741 4.25947 0C4.41223 0.529341 4.85286 1.24856 5.01149 1.77214C5.17012 2.43382 5.40513 3.0955 5.62838 3.68813C6.02789 5.07477 6.2864 6.39813 6.55078 7.92286C7.07367 10.8457 7.00316 14.2519 8.05481 16.68C8.95958 18.9182 10.6164 21.0586 12.3084 22.5315C13.2308 23.3658 14.0063 24.0678 14.9934 24.833C15.34 25.0171 18.0014 26.8526 18.0014 26.8526Z"
          fill="#FFA800"/>
</svg>
